<svg xmlns="http://www.w3.org/2000/svg" viewBox="0 0 128 128" role="img" aria-label="discord.py">
  <rect width="128" height="128" rx="28" fill="#5865f2"/>
  <path fill="#ffffff" d="M93.8 39.4A73.5 73.5 0 0 0 76 34l-2.3 4.7a67.5 67.5 0 0 0-19.4 0L52 34a73.5 73.5 0 0 0-17.8 5.4c-11.3 16.8-14.4 33.2-12.9 49.4A72 72 0 0 0 43.1 100l4.5-7.1a46.5 46.5 0 0 1-7.1-3.4l1.7-1.3c13.7 6.3 28.4 6.3 42 0l1.7 1.3a46.5 46.5 0 0 1-7.1 3.4l4.5 7.1a72 72 0 0 0 21.8-11.2c1.8-18.8-3-35-11.3-49.4ZM50.3 78.9c-4.2 0-7.6-3.8-7.6-8.4s3.3-8.4 7.6-8.4c4.3 0 7.7 3.8 7.6 8.4 0 4.6-3.3 8.4-7.6 8.4Zm27.4 0c-4.2 0-7.6-3.8-7.6-8.4s3.3-8.4 7.6-8.4c4.3 0 7.7 3.8 7.6 8.4 0 4.6-3.3 8.4-7.6 8.4Z"/>
  <path fill="#ffd43b" d="M83.5 98.2c5.9 0 9.8 3.3 9.8 8.1 0 4.9-4.1 8.4-10.2 8.4H69.4V99.3h5.8v10.5h8c2.5 0 4.1-1.2 4.1-3.2 0-1.9-1.5-3.1-4.1-3.1H79v-5.3h4.5Z"/>
  <path fill="#3776ab" d="M45.2 98.2h14.1c5.7 0 9.6 3.3 9.6 8.1 0 4.7-3.8 8-9.3 8H51v9.3h-5.8V98.2Zm13.6 10.8c2.5 0 4.1-1.1 4.1-2.9s-1.6-2.8-4.1-2.8H51v5.7h7.8Z"/>
</svg>
